<svg xmlns="http://www.w3.org/2000/svg" viewBox="0 0 512 512" style="height: 512px; width: 512px;"><path d="M0 0h512v512H0z" fill="#000000" fill-opacity="0.1"></path><g class="" transform="translate(0,0)" style=""><g><path d="M257.5 18C127 18 20.91 124.1 20.91 254.6C20.91 385.1 127 491.1 257.5 491.1C388 491.1 494 385.1 494 254.6C494 124.1 388 18 257.5 18Z" class="" fill="#000000" fill-opacity="1"></path><path d="M257.5 36.09C377.9 36.09 474.8 134.2 474.8 254.6C474.8 375 377.9 471.9 257.5 471.9C137.1 471.9 39 375 39 254.6C39 134.2 137.1 36.1 257.5 36.1Z" class="selected" fill="#43e5f7" fill-opacity="1"></path><path d="M259.2 57.34C241.1 57.34 223.6 59.8 207 64.37C223.1 64.27 239.3 66.51 255.2 70.87C248.4 75.9 244 83.98 244 93.09C244 108.4 256.4 120.7 271.6 120.7C280.1 120.7 287.6 117 292.7 111C293.8 121.6 300.4 130.6 309.6 135C295.6 146.3 286.6 163.7 286.6 183.1C286.6 217.2 314.2 244.8 348.2 244.8C372.8 244.8 394 230.5 403.9 209.8C430.5 277 424.1 349 389.3 400.1C429.7 364.2 455.3 311.8 455.3 253.4C455.3 145.2 367.5 57.35 259.2 57.35Z" class="" fill="#000000" fill-opacity="1"></path><path d="M243.1 218.1C226.5 218.1 213 231.6 213 248.2C213 264.8 226.5 278.3 243.1 278.3C259.7 278.3 273.2 264.8 273.2 248.2C273.2 231.6 259.7 218.1 243.1 218.1Z" class="" fill="#000000" fill-opacity="1"></path><path d="M326.4 278.1C303.8 278.1 285.4 296.4 285.4 319C285.4 341.6 303.8 360 326.4 360C349 360 367.3 341.6 367.3 319C367.3 296.4 349 278.1 326.4 278.1Z" class="" fill="#000000" fill-opacity="1"></path><path d="M228.8 312.1C212.2 312.1 198.7 325.5 198.7 342.2C198.7 358.8 212.2 372.3 228.8 372.3C245.4 372.3 258.9 358.8 258.9 342.2C258.9 325.5 245.4 312.1 228.8 312.1Z" class="" fill="#000000" fill-opacity="1"></path></g></g></svg>